<svg width="175" height="9" viewBox="0 0 175 9" fill="none" xmlns="http://www.w3.org/2000/svg">
<path d="M175 5.75453C175.017 7.20321 171.45 8.52084 167.069 8.58812C167.357 8.60131 167.591 8.66822 166.718 8.93541C165.341 9.35692 141.993 7.57746 141.993 7.57746C141.993 7.57746 141.759 8.26916 140.613 7.94857C139.466 7.62797 136.416 6.43391 135.256 6.79328C134.097 7.15264 132.094 6.34733 127.171 6.25298C121.284 6.14017 111.922 5.23409 111.922 5.23409L110.542 5.57868H109.162L103.64 5.23409L99.4994 5.57868L98.1191 5.23409L96.7387 5.57868V5.94979H93.9781V5.57868L73.1016 5.66163L67.5623 5.92591L62.144 4.91178C44.169 5.56563 30.2753 6.88823 20.705 7.59509L19.3247 7.25049H17.9444L4.14101 8.46983C1.38034 8.2401 0 7.53324 0 6.34925C8.89548 5.73074 15.3371 4.90901 19.3247 3.88406H20.705L22.0853 4.22866H23.4657C23.4657 3.34508 26.6865 2.76192 33.1281 2.47917L37.2691 2.82377L38.6494 2.47917H39.9377L44.0787 2.82377C44.0787 2.36431 45.4591 2.13458 48.2197 2.13458L49.6001 1.76347C53.6315 1.53761 53.1044 1.3964 55.996 1.2185C55.996 0.895363 61.1756 0.989525 62.144 1.12123C62.9946 1.13669 62.7268 1.54164 64.8587 1.3964L66.0922 0.895363L71.6161 0.892911L79.4687 1.21605C80.3889 1.21605 86.3367 0.0176716 87.3182 0L106.401 0.992912L107.781 1.36401V0.992912C107.339 0.648248 108.461 0.534794 109.162 0.648316C109.162 0.648316 113.511 0.334502 117.883 0.49695C121.94 -0.0179725 123.769 0.261052 125.464 0.625805C127.177 0.707912 128.6 0.879786 129.204 1.25337C130.67 2.16113 137.41 1.15196 141.184 1.4041C144.957 1.65624 143.717 2.44516 147.471 2.79971C151.225 3.15426 151.784 3.08679 154.539 2.9463C157.295 2.80582 159.104 4.79341 161.197 4.69423C163.289 4.59505 162.564 3.80826 163.957 4.00504C165.35 4.20182 174.982 4.26733 175 5.75453Z" fill="#73CBE8"/>
</svg>
