<svg width="140" height="5" viewBox="0 0 140 5" fill="none" xmlns="http://www.w3.org/2000/svg">
<path d="M140 3.19696C140.014 4.00178 137.16 4.7338 133.655 4.77118C133.886 4.7785 134.073 4.81568 133.374 4.96412C132.272 5.19829 113.594 4.2097 113.594 4.2097C113.594 4.2097 113.407 4.59398 112.49 4.41587C111.573 4.23776 109.133 3.57439 108.205 3.77404C107.278 3.97369 105.675 3.5263 101.736 3.47388C97.0273 3.41121 89.5379 2.90783 89.5379 2.90783L88.4337 3.09927H87.3294L82.9123 2.90783L79.5995 3.09927L78.4953 2.90783L77.391 3.09927V3.30544L75.1825 3.30544V3.09927L58.4813 3.14535L54.0499 3.29218L49.7152 2.72877C35.3352 3.09201 24.2203 3.82679 16.564 4.2195L15.4598 4.02805L14.3555 4.02805L3.31282 4.70546C1.10428 4.57783 0 4.18513 0 3.52736C7.11639 3.18374 12.2696 2.72723 15.4598 2.15781L16.564 2.15781L17.6683 2.34925L18.7726 2.34925C18.7726 1.85838 21.3492 1.5344 26.5024 1.37732L29.8153 1.56876L30.9195 1.37732L31.9502 1.37732L35.263 1.56876C35.263 1.3135 36.3673 1.18588 38.5758 1.18588L39.6801 0.979707C42.9052 0.854227 42.4835 0.775777 44.7968 0.676945C44.7968 0.497424 48.9405 0.549736 49.7152 0.622903C50.3957 0.631493 50.1814 0.856465 51.8869 0.775777L52.8738 0.497424L57.2929 0.496062L63.575 0.675583C64.3111 0.675583 69.0693 0.00981753 69.8546 0L85.1209 0.551618L86.2251 0.757786V0.551618C85.8711 0.360138 86.7685 0.297108 87.3294 0.360176C87.3294 0.360176 90.8091 0.185834 94.3067 0.276083C97.5524 -0.00998578 99.0152 0.145028 100.371 0.34767C101.742 0.393284 102.88 0.48877 103.363 0.696318C104.536 1.20063 109.928 0.63998 112.947 0.780057C115.966 0.920134 114.973 1.35842 117.977 1.55539C120.98 1.75237 121.427 1.71488 123.631 1.63683C125.836 1.55879 127.283 2.663 128.957 2.60791C130.631 2.55281 130.052 2.1157 131.166 2.22502C132.28 2.33434 139.986 2.37074 140 3.19696Z" fill="#73CBE8"/>
</svg>
