<svg width="60" height="60" viewBox="0 0 60 60" fill="none" xmlns="http://www.w3.org/2000/svg">
<path d="M59.9994 30.069C60.0137 46.5459 46.5917 59.9155 30.021 59.9311C13.4576 59.9449 0.0132327 46.5983 1.5437e-05 30.122C-0.0166138 13.6437 13.4041 0.27254 29.9702 0.25807C46.54 0.242695 59.9848 13.5912 59.9994 30.069Z" fill="#EAB300"/>
<path fill-rule="evenodd" clip-rule="evenodd" d="M41.7938 22.7768C41.403 18.7806 37.9328 17.4438 33.5527 17.066L33.5477 11.5222L30.1538 11.5258L30.1588 16.9235C29.2678 16.9241 28.356 16.9425 27.4502 16.9612L27.4459 11.5278L24.0547 11.5307L24.0584 17.0729C23.3238 17.0885 22.6024 17.1027 21.899 17.1037L21.8985 17.0866L17.2188 17.0891L17.2228 20.6931C17.2228 20.6931 19.7284 20.6434 19.6868 20.6893C21.0611 20.6886 21.51 21.4815 21.6398 22.1663L21.6457 28.4819C21.7406 28.4823 21.8643 28.4861 22.0044 28.5051L21.6469 28.5056L21.6529 37.3534C21.593 37.7836 21.3394 38.4697 20.3792 38.4722C20.4226 38.5104 17.9127 38.4737 17.9127 38.4737L17.2424 42.5052L21.6588 42.5009C22.1575 42.5011 22.6513 42.506 23.1398 42.5108C23.4558 42.514 23.7705 42.5171 24.0818 42.5189L24.0884 48.1267L27.4777 48.1243L27.4736 42.5764C28.4033 42.5949 29.304 42.6015 30.1832 42.5999L30.1866 48.122L33.5796 48.1187L33.5757 42.5217C39.2797 42.1912 43.2718 40.7583 43.7613 35.4317C44.1577 31.1415 42.1279 29.2289 38.889 28.4575C40.8548 27.4577 42.0841 25.7011 41.7938 22.7768ZM37.058 34.7695C37.0623 38.6154 30.9864 38.536 28.2089 38.4996C27.9602 38.4964 27.7379 38.4935 27.5488 38.4938L27.5431 31.0649C27.7743 31.0648 28.055 31.0579 28.3731 31.0502C31.2196 30.9808 37.0523 30.839 37.058 34.7695ZM28.1006 27.67C30.4195 27.7057 35.4741 27.7835 35.472 24.2894C35.4692 20.7148 30.6066 20.8476 28.2317 20.9124C27.9647 20.9197 27.7292 20.9261 27.5355 20.9263L27.5413 27.664C27.7012 27.6638 27.8895 27.6667 28.1006 27.67Z" fill="white"/>
</svg>
