<svg width="60" height="60" viewBox="0 0 60 60" fill="none" xmlns="http://www.w3.org/2000/svg">
<path d="M30 59.9617C46.5685 59.9617 60 46.6035 60 30.1252C60 13.647 46.5685 0.288818 30 0.288818C13.4315 0.288818 0 13.647 0 30.1252C0 46.6035 13.4315 59.9617 30 59.9617Z" fill="#2573C2"/>
<path d="M49.5768 22.2728C49.5365 21.6042 49.3393 20.9543 49.0008 20.3752C48.7008 19.7785 48.1668 19.313 47.5428 19.0743C46.9065 18.7589 46.2015 18.6051 45.4908 18.6268H18.8628L16.9548 24.3137H41.0808L37.2708 35.9381H13.1508L11.2428 41.625H37.9968C38.794 41.6021 39.5822 41.4509 40.3308 41.1774C41.0808 40.7538 41.9388 40.3241 42.6648 39.7274C43.3736 39.1716 44.014 38.5347 44.5728 37.8298C45.0347 37.1391 45.4285 36.4057 45.7488 35.6397L49.2828 24.5882C49.6043 23.861 49.7065 23.0566 49.5768 22.2728Z" fill="white"/>
<path d="M26.4634 27.4883H12.2674L10.3594 32.7454H24.6994L26.4634 27.4883Z" fill="white"/>
</svg>
