<svg width="60" height="61" viewBox="0 0 60 61" fill="none" xmlns="http://www.w3.org/2000/svg">
<path d="M59.103 37.8517C55.0956 53.8356 38.8151 63.5623 22.7398 59.5772C6.67207 55.5922 -3.10997 39.4022 0.898296 23.4193C4.90375 7.43348 21.1834 -2.29505 37.2539 1.68997C53.3283 5.67499 63.1094 21.8668 59.102 37.8517H59.103Z" fill="#EAEAEA"/>
<path fill-rule="evenodd" clip-rule="evenodd" d="M14.2852 28.8148L29.1296 21.0428L43.8528 28.863L29.0649 7.29297L14.2852 28.8148ZM14.8555 31.0569L29.1499 23.4697L43.2582 31.0005L29.1579 38.5957L14.8555 31.0569ZM14.2859 33.2327C19.4956 35.9843 24.9319 38.8646 29.1304 41.0932L43.8535 33.2327C38.5224 41.1093 34.0812 47.6665 29.1304 54.9236C28.1354 53.4708 27.1197 51.9879 26.0958 50.4932C22.0168 44.5382 17.8102 38.3971 14.2859 33.2327Z" fill="#3AB83A"/>
<path fill-rule="evenodd" clip-rule="evenodd" d="M29.0664 7.29395L29.1311 21.0438L43.8542 28.864L29.0664 7.29395ZM29.1484 23.4705L43.2567 31.001L29.1565 38.5959L29.1484 23.4705ZM29.125 41.0935L43.8481 33.2329C38.5171 41.1095 29.125 54.9238 29.125 54.9238V41.0935Z" fill="#0B8311"/>
<path fill-rule="evenodd" clip-rule="evenodd" d="M14.8513 31.0629L29.1457 32.2295L43.254 31.0146L29.1538 38.6096L14.8513 31.0629Z" fill="#0B8311"/>
<path fill-rule="evenodd" clip-rule="evenodd" d="M29.1445 32.2298L43.2528 31.0149L29.1526 38.6099L29.1445 32.2298H29.1445Z" fill="#146714"/>
</svg>
