<svg width="60" height="61" viewBox="0 0 60 61" fill="none" xmlns="http://www.w3.org/2000/svg">
<ellipse cx="30" cy="30.3451" rx="30" ry="29.8368" fill="#003458"/>
<path d="M29.6393 32.6951L26.6576 42.7018H42.6062C43.0569 42.7018 43.4244 43.0673 43.4244 43.5156C43.4244 43.5915 43.4106 43.6673 43.3898 43.7432L42.0029 48.4948C41.8642 48.9638 41.4343 49.281 40.9489 49.281H16.5892L20.7081 35.4468L16.1523 36.8261L17.1578 33.5916L21.7205 32.2123L27.5036 12.7782C27.6353 12.3092 28.0652 11.9851 28.5506 11.9851H34.7221C35.1728 11.9851 35.5403 12.3437 35.5403 12.7989C35.5403 12.8747 35.5334 12.9506 35.5125 13.0196L30.6586 29.4538L35.2144 28.0745L34.2367 31.3641L29.6393 32.6951Z" fill="white"/>
</svg>
