<svg width="60" height="61" viewBox="0 0 60 61" fill="none" xmlns="http://www.w3.org/2000/svg">
<path d="M30 60.501C46.5685 60.501 60 47.1427 60 30.6644C60 14.1862 46.5685 0.827881 30 0.827881C13.4315 0.827881 0 14.1862 0 30.6644C0 47.1427 13.4315 60.501 30 60.501Z" fill="#73CBE8"/>
<path fill-rule="evenodd" clip-rule="evenodd" d="M32.25 24.883L39 20.9669V28.7991L32.25 24.883ZM39 41.6663L30 46.8877L21 41.6663V32.5287L30 37.7502L39 32.5287V41.6663ZM21 20.9669L27.75 24.883L21 28.7991V20.9669ZM31.125 26.7478L37.875 30.6639L31.125 34.58V26.7478ZM28.875 34.58L22.125 30.6639L28.875 26.7478V34.58ZM37.875 19.1021L30 23.5777L22.125 19.1021L30 14.4401L37.875 19.1021ZM18.75 18.3562V42.7852L30 49.1255L41.25 42.7852V18.3562L30 12.0159L18.75 18.3562Z" fill="white"/>
</svg>
