<svg width="60" height="61" viewBox="0 0 60 61" fill="none" xmlns="http://www.w3.org/2000/svg">
<path d="M59.1027 37.545C55.0954 53.5289 38.8149 63.2556 22.7397 59.2706C6.67204 55.2856 -3.10995 39.0955 0.898292 23.1125C4.90373 7.12662 21.1833 -2.60195 37.2538 1.38309C53.328 5.36813 63.1091 21.56 59.1018 37.545H59.1027Z" fill="white"/>
<path d="M29.9995 0.490234C13.4339 0.490234 0 13.8507 0 30.3266C0 33.6195 0.536719 36.7871 1.52766 39.7507H10.5V14.647L30 34.0408L49.4995 14.647V39.7505H58.4719C59.4635 36.7869 60.0002 33.6193 60.0002 30.3263C60 13.85 46.5659 0.490234 29.9995 0.490234Z" fill="#FF813A"/>
<path d="M25.5142 38.4968L17.0041 30.0327V45.8287H4.36328C9.62968 54.4215 19.1409 60.1597 29.9976 60.1597C40.8543 60.1597 50.3664 54.4215 55.6321 45.8287H42.9915V30.0325L34.4814 38.4963L29.9978 42.9553L25.5147 38.4966H25.5142V38.4968Z" fill="#4C4C4C"/>
</svg>
