<svg xmlns="http://www.w3.org/2000/svg" xmlns:xlink="http://www.w3.org/1999/xlink"><symbol id="arrow-l" viewBox="0 0 19 16">
<path d="M18 9C18.5523 9 19 8.55228 19 8C19 7.44772 18.5523 7 18 7V9ZM0.292892 7.29289C-0.0976315 7.68342 -0.0976315 8.31658 0.292892 8.70711L6.65685 15.0711C7.04738 15.4616 7.68054 15.4616 8.07107 15.0711C8.46159 14.6805 8.46159 14.0474 8.07107 13.6569L2.41421 8L8.07107 2.34315C8.46159 1.95262 8.46159 1.31946 8.07107 0.928932C7.68054 0.538408 7.04738 0.538408 6.65685 0.928932L0.292892 7.29289ZM18 7L1 7V9L18 9V7Z" fill="#73CBE8"/>
</symbol><symbol id="arrow-r" viewBox="0 0 14 16">
<path d="M1 7C0.447715 7 0 7.44772 0 8C0 8.55228 0.447715 9 1 9V7ZM13.7071 8.70711C14.0976 8.31658 14.0976 7.68342 13.7071 7.29289L7.34315 0.928932C6.95262 0.538408 6.31946 0.538408 5.92893 0.928932C5.53841 1.31946 5.53841 1.95262 5.92893 2.34315L11.5858 8L5.92893 13.6569C5.53841 14.0474 5.53841 14.6805 5.92893 15.0711C6.31946 15.4616 6.95262 15.4616 7.34315 15.0711L13.7071 8.70711ZM1 9H13V7H1V9Z" fill="#0A1F32"/>
</symbol><symbol id="arrow" viewBox="0 0 9 5">
<path d="M1 1L3.84921 3.44218C4.2237 3.76317 4.7763 3.76317 5.15079 3.44218L8 1" stroke="#0A1F32" stroke-linecap="round"/>
</symbol><symbol id="icon-people" viewBox="0 0 18 19">
<path d="M4.5 4.5C4.5 6.981 6.519 9 9 9C11.481 9 13.5 6.981 13.5 4.5C13.5 2.019 11.481 0 9 0C6.519 0 4.5 2.019 4.5 4.5ZM17 19H18V18C18 14.141 14.859 11 11 11H7C3.14 11 0 14.141 0 18V19H17Z" fill="#FF813A"/>
</symbol></svg>