<svg width="750" height="344" viewBox="0 0 750 344" fill="none" xmlns="http://www.w3.org/2000/svg">
<path d="M750 343.5C750 252.398 710.491 165.028 640.165 100.609C569.839 36.1901 474.456 0 375 0C275.544 0 180.161 36.1901 109.835 100.609C39.5088 165.028 1.50175e-05 252.398 0 343.5L750 343.5Z" fill="#73CBE8"/>
<g opacity="0.12">
<path d="M129.593 243.782C129.593 244.783 128.782 245.594 127.782 245.594C126.781 245.594 125.97 244.783 125.97 243.782C125.97 242.782 126.781 241.97 127.782 241.97C128.782 241.97 129.593 242.782 129.593 243.782Z" fill="#F9F9FB"/>
<path d="M129.593 214.797C129.593 215.797 128.782 216.608 127.782 216.608C126.781 216.608 125.97 215.797 125.97 214.797C125.97 213.796 126.781 212.985 127.782 212.985C128.782 212.985 129.593 213.796 129.593 214.797Z" fill="#F9F9FB"/>
<path d="M129.593 272.767C129.593 273.768 128.782 274.579 127.782 274.579C126.781 274.579 125.97 273.768 125.97 272.767C125.97 271.767 126.781 270.956 127.782 270.956C128.782 270.956 129.593 271.767 129.593 272.767Z" fill="#F9F9FB"/>
<path d="M129.593 200.304C129.593 201.305 128.782 202.116 127.782 202.116C126.781 202.116 125.97 201.305 125.97 200.304C125.97 199.304 126.781 198.493 127.782 198.493C128.782 198.493 129.593 199.304 129.593 200.304Z" fill="#F9F9FB"/>
<path d="M129.593 258.275C129.593 259.275 128.782 260.086 127.782 260.086C126.781 260.086 125.97 259.275 125.97 258.275C125.97 257.274 126.781 256.463 127.782 256.463C128.782 256.463 129.593 257.274 129.593 258.275Z" fill="#F9F9FB"/>
<path d="M129.593 229.289C129.593 230.29 128.782 231.101 127.782 231.101C126.781 231.101 125.97 230.29 125.97 229.289C125.97 228.289 126.781 227.478 127.782 227.478C128.782 227.478 129.593 228.289 129.593 229.289Z" fill="#F9F9FB"/>
<path d="M129.593 287.26C129.593 288.26 128.782 289.071 127.782 289.071C126.781 289.071 125.97 288.26 125.97 287.26C125.97 286.259 126.781 285.448 127.782 285.448C128.782 285.448 129.593 286.259 129.593 287.26Z" fill="#F9F9FB"/>
<path d="M187.564 243.782C187.564 244.783 186.753 245.594 185.753 245.594C184.752 245.594 183.941 244.783 183.941 243.782C183.941 242.782 184.752 241.97 185.753 241.97C186.753 241.97 187.564 242.782 187.564 243.782Z" fill="#F9F9FB"/>
<path d="M187.564 214.797C187.564 215.797 186.753 216.608 185.753 216.608C184.752 216.608 183.941 215.797 183.941 214.797C183.941 213.796 184.752 212.985 185.753 212.985C186.753 212.985 187.564 213.796 187.564 214.797Z" fill="#F9F9FB"/>
<path d="M187.564 272.767C187.564 273.768 186.753 274.579 185.753 274.579C184.752 274.579 183.941 273.768 183.941 272.767C183.941 271.767 184.752 270.956 185.753 270.956C186.753 270.956 187.564 271.767 187.564 272.767Z" fill="#F9F9FB"/>
<path d="M187.564 200.304C187.564 201.305 186.753 202.116 185.753 202.116C184.752 202.116 183.941 201.305 183.941 200.304C183.941 199.304 184.752 198.493 185.753 198.493C186.753 198.493 187.564 199.304 187.564 200.304Z" fill="#F9F9FB"/>
<path d="M187.564 258.275C187.564 259.275 186.753 260.086 185.753 260.086C184.752 260.086 183.941 259.275 183.941 258.275C183.941 257.274 184.752 256.463 185.753 256.463C186.753 256.463 187.564 257.274 187.564 258.275Z" fill="#F9F9FB"/>
<path d="M187.564 229.289C187.564 230.29 186.753 231.101 185.753 231.101C184.752 231.101 183.941 230.29 183.941 229.289C183.941 228.289 184.752 227.478 185.753 227.478C186.753 227.478 187.564 228.289 187.564 229.289Z" fill="#F9F9FB"/>
<path d="M187.564 287.26C187.564 288.26 186.753 289.071 185.753 289.071C184.752 289.071 183.941 288.26 183.941 287.26C183.941 286.259 184.752 285.448 185.753 285.448C186.753 285.448 187.564 286.259 187.564 287.26Z" fill="#F9F9FB"/>
<path d="M158.579 243.782C158.579 244.783 157.768 245.594 156.767 245.594C155.767 245.594 154.956 244.783 154.956 243.782C154.956 242.782 155.767 241.97 156.767 241.97C157.768 241.97 158.579 242.782 158.579 243.782Z" fill="#F9F9FB"/>
<path d="M158.579 214.797C158.579 215.797 157.768 216.608 156.767 216.608C155.767 216.608 154.956 215.797 154.956 214.797C154.956 213.796 155.767 212.985 156.767 212.985C157.768 212.985 158.579 213.796 158.579 214.797Z" fill="#F9F9FB"/>
<path d="M158.579 272.767C158.579 273.768 157.768 274.579 156.767 274.579C155.767 274.579 154.956 273.768 154.956 272.767C154.956 271.767 155.767 270.956 156.767 270.956C157.768 270.956 158.579 271.767 158.579 272.767Z" fill="#F9F9FB"/>
<path d="M158.579 200.304C158.579 201.305 157.768 202.116 156.767 202.116C155.767 202.116 154.956 201.305 154.956 200.304C154.956 199.304 155.767 198.493 156.767 198.493C157.768 198.493 158.579 199.304 158.579 200.304Z" fill="#F9F9FB"/>
<path d="M158.579 258.275C158.579 259.275 157.768 260.086 156.767 260.086C155.767 260.086 154.956 259.275 154.956 258.275C154.956 257.274 155.767 256.463 156.767 256.463C157.768 256.463 158.579 257.274 158.579 258.275Z" fill="#F9F9FB"/>
<path d="M158.579 229.289C158.579 230.29 157.768 231.101 156.767 231.101C155.767 231.101 154.956 230.29 154.956 229.289C154.956 228.289 155.767 227.478 156.767 227.478C157.768 227.478 158.579 228.289 158.579 229.289Z" fill="#F9F9FB"/>
<path d="M158.579 287.26C158.579 288.26 157.768 289.071 156.767 289.071C155.767 289.071 154.956 288.26 154.956 287.26C154.956 286.259 155.767 285.448 156.767 285.448C157.768 285.448 158.579 286.259 158.579 287.26Z" fill="#F9F9FB"/>
<path d="M100.608 243.782C100.608 244.783 99.7974 245.594 98.7969 245.594C97.7964 245.594 96.9853 244.783 96.9853 243.782C96.9853 242.782 97.7964 241.97 98.7969 241.97C99.7974 241.97 100.608 242.782 100.608 243.782Z" fill="#F9F9FB"/>
<path d="M100.608 214.797C100.608 215.797 99.7974 216.608 98.7969 216.608C97.7964 216.608 96.9853 215.797 96.9853 214.797C96.9853 213.796 97.7964 212.985 98.7969 212.985C99.7974 212.985 100.608 213.796 100.608 214.797Z" fill="#F9F9FB"/>
<path d="M100.608 272.767C100.608 273.768 99.7974 274.579 98.7969 274.579C97.7964 274.579 96.9853 273.768 96.9853 272.767C96.9853 271.767 97.7964 270.956 98.7969 270.956C99.7974 270.956 100.608 271.767 100.608 272.767Z" fill="#F9F9FB"/>
<path d="M100.608 200.304C100.608 201.305 99.7974 202.116 98.7969 202.116C97.7964 202.116 96.9853 201.305 96.9853 200.304C96.9853 199.304 97.7964 198.493 98.7969 198.493C99.7974 198.493 100.608 199.304 100.608 200.304Z" fill="#F9F9FB"/>
<path d="M100.608 258.275C100.608 259.275 99.7974 260.086 98.7969 260.086C97.7964 260.086 96.9853 259.275 96.9853 258.275C96.9853 257.274 97.7964 256.463 98.7969 256.463C99.7974 256.463 100.608 257.274 100.608 258.275Z" fill="#F9F9FB"/>
<path d="M100.608 229.289C100.608 230.29 99.7974 231.101 98.7969 231.101C97.7964 231.101 96.9853 230.29 96.9853 229.289C96.9853 228.289 97.7964 227.478 98.7969 227.478C99.7974 227.478 100.608 228.289 100.608 229.289Z" fill="#F9F9FB"/>
<path d="M100.608 287.26C100.608 288.26 99.7974 289.071 98.7969 289.071C97.7964 289.071 96.9853 288.26 96.9853 287.26C96.9853 286.259 97.7964 285.448 98.7969 285.448C99.7974 285.448 100.608 286.259 100.608 287.26Z" fill="#F9F9FB"/>
<path d="M216.549 243.782C216.549 244.783 215.738 245.594 214.737 245.594C213.737 245.594 212.926 244.783 212.926 243.782C212.926 242.782 213.737 241.97 214.737 241.97C215.738 241.97 216.549 242.782 216.549 243.782Z" fill="#F9F9FB"/>
<path d="M216.549 214.797C216.549 215.797 215.738 216.608 214.737 216.608C213.737 216.608 212.926 215.797 212.926 214.797C212.926 213.796 213.737 212.985 214.737 212.985C215.738 212.985 216.549 213.796 216.549 214.797Z" fill="#F9F9FB"/>
<path d="M216.549 272.767C216.549 273.768 215.738 274.579 214.737 274.579C213.737 274.579 212.926 273.768 212.926 272.767C212.926 271.767 213.737 270.956 214.737 270.956C215.738 270.956 216.549 271.767 216.549 272.767Z" fill="#F9F9FB"/>
<path d="M216.549 200.304C216.549 201.305 215.738 202.116 214.737 202.116C213.737 202.116 212.926 201.305 212.926 200.304C212.926 199.304 213.737 198.493 214.737 198.493C215.738 198.493 216.549 199.304 216.549 200.304Z" fill="#F9F9FB"/>
<path d="M216.549 258.275C216.549 259.275 215.738 260.086 214.737 260.086C213.737 260.086 212.926 259.275 212.926 258.275C212.926 257.274 213.737 256.463 214.737 256.463C215.738 256.463 216.549 257.274 216.549 258.275Z" fill="#F9F9FB"/>
<path d="M216.549 229.289C216.549 230.29 215.738 231.101 214.737 231.101C213.737 231.101 212.926 230.29 212.926 229.289C212.926 228.289 213.737 227.478 214.737 227.478C215.738 227.478 216.549 228.289 216.549 229.289Z" fill="#F9F9FB"/>
<path d="M216.549 287.26C216.549 288.26 215.738 289.071 214.737 289.071C213.737 289.071 212.926 288.26 212.926 287.26C212.926 286.259 213.737 285.448 214.737 285.448C215.738 285.448 216.549 286.259 216.549 287.26Z" fill="#F9F9FB"/>
<path d="M144.086 243.782C144.086 244.783 143.275 245.594 142.275 245.594C141.274 245.594 140.463 244.783 140.463 243.782C140.463 242.782 141.274 241.97 142.275 241.97C143.275 241.97 144.086 242.782 144.086 243.782Z" fill="#F9F9FB"/>
<path d="M144.086 214.797C144.086 215.797 143.275 216.608 142.275 216.608C141.274 216.608 140.463 215.797 140.463 214.797C140.463 213.796 141.274 212.985 142.275 212.985C143.275 212.985 144.086 213.796 144.086 214.797Z" fill="#F9F9FB"/>
<path d="M144.086 272.767C144.086 273.768 143.275 274.579 142.275 274.579C141.274 274.579 140.463 273.768 140.463 272.767C140.463 271.767 141.274 270.956 142.275 270.956C143.275 270.956 144.086 271.767 144.086 272.767Z" fill="#F9F9FB"/>
<path d="M144.086 200.304C144.086 201.305 143.275 202.116 142.275 202.116C141.274 202.116 140.463 201.305 140.463 200.304C140.463 199.304 141.274 198.493 142.275 198.493C143.275 198.493 144.086 199.304 144.086 200.304Z" fill="#F9F9FB"/>
<path d="M144.086 258.275C144.086 259.275 143.275 260.086 142.275 260.086C141.274 260.086 140.463 259.275 140.463 258.275C140.463 257.274 141.274 256.463 142.275 256.463C143.275 256.463 144.086 257.274 144.086 258.275Z" fill="#F9F9FB"/>
<path d="M144.086 229.289C144.086 230.29 143.275 231.101 142.275 231.101C141.274 231.101 140.463 230.29 140.463 229.289C140.463 228.289 141.274 227.478 142.275 227.478C143.275 227.478 144.086 228.289 144.086 229.289Z" fill="#F9F9FB"/>
<path d="M144.086 287.26C144.086 288.26 143.275 289.071 142.275 289.071C141.274 289.071 140.463 288.26 140.463 287.26C140.463 286.259 141.274 285.448 142.275 285.448C143.275 285.448 144.086 286.259 144.086 287.26Z" fill="#F9F9FB"/>
<path d="M86.1158 243.782C86.1158 244.783 85.3048 245.594 84.3043 245.594C83.3037 245.594 82.4927 244.783 82.4927 243.782C82.4927 242.782 83.3037 241.97 84.3043 241.97C85.3048 241.97 86.1158 242.782 86.1158 243.782Z" fill="#F9F9FB"/>
<path d="M86.1158 214.797C86.1158 215.797 85.3048 216.608 84.3043 216.608C83.3037 216.608 82.4927 215.797 82.4927 214.797C82.4927 213.796 83.3037 212.985 84.3043 212.985C85.3048 212.985 86.1158 213.796 86.1158 214.797Z" fill="#F9F9FB"/>
<path d="M86.1158 272.767C86.1158 273.768 85.3048 274.579 84.3043 274.579C83.3037 274.579 82.4927 273.768 82.4927 272.767C82.4927 271.767 83.3037 270.956 84.3043 270.956C85.3048 270.956 86.1158 271.767 86.1158 272.767Z" fill="#F9F9FB"/>
<path d="M86.1158 200.304C86.1158 201.305 85.3048 202.116 84.3043 202.116C83.3037 202.116 82.4927 201.305 82.4927 200.304C82.4927 199.304 83.3037 198.493 84.3043 198.493C85.3048 198.493 86.1158 199.304 86.1158 200.304Z" fill="#F9F9FB"/>
<path d="M86.1158 258.275C86.1158 259.275 85.3048 260.086 84.3043 260.086C83.3037 260.086 82.4927 259.275 82.4927 258.275C82.4927 257.274 83.3037 256.463 84.3043 256.463C85.3048 256.463 86.1158 257.274 86.1158 258.275Z" fill="#F9F9FB"/>
<path d="M86.1158 229.289C86.1158 230.29 85.3048 231.101 84.3043 231.101C83.3037 231.101 82.4927 230.29 82.4927 229.289C82.4927 228.289 83.3037 227.478 84.3043 227.478C85.3048 227.478 86.1158 228.289 86.1158 229.289Z" fill="#F9F9FB"/>
<path d="M86.1158 287.26C86.1158 288.26 85.3048 289.071 84.3043 289.071C83.3037 289.071 82.4927 288.26 82.4927 287.26C82.4927 286.259 83.3037 285.448 84.3043 285.448C85.3048 285.448 86.1158 286.259 86.1158 287.26Z" fill="#F9F9FB"/>
<path d="M202.057 243.782C202.057 244.783 201.246 245.594 200.245 245.594C199.245 245.594 198.434 244.783 198.434 243.782C198.434 242.782 199.245 241.97 200.245 241.97C201.246 241.97 202.057 242.782 202.057 243.782Z" fill="#F9F9FB"/>
<path d="M202.057 214.797C202.057 215.797 201.246 216.608 200.245 216.608C199.245 216.608 198.434 215.797 198.434 214.797C198.434 213.796 199.245 212.985 200.245 212.985C201.246 212.985 202.057 213.796 202.057 214.797Z" fill="#F9F9FB"/>
<path d="M202.057 272.767C202.057 273.768 201.246 274.579 200.245 274.579C199.245 274.579 198.434 273.768 198.434 272.767C198.434 271.767 199.245 270.956 200.245 270.956C201.246 270.956 202.057 271.767 202.057 272.767Z" fill="#F9F9FB"/>
<path d="M202.057 200.304C202.057 201.305 201.246 202.116 200.245 202.116C199.245 202.116 198.434 201.305 198.434 200.304C198.434 199.304 199.245 198.493 200.245 198.493C201.246 198.493 202.057 199.304 202.057 200.304Z" fill="#F9F9FB"/>
<path d="M202.057 258.275C202.057 259.275 201.246 260.086 200.245 260.086C199.245 260.086 198.434 259.275 198.434 258.275C198.434 257.274 199.245 256.463 200.245 256.463C201.246 256.463 202.057 257.274 202.057 258.275Z" fill="#F9F9FB"/>
<path d="M202.057 229.289C202.057 230.29 201.246 231.101 200.245 231.101C199.245 231.101 198.434 230.29 198.434 229.289C198.434 228.289 199.245 227.478 200.245 227.478C201.246 227.478 202.057 228.289 202.057 229.289Z" fill="#F9F9FB"/>
<path d="M202.057 287.26C202.057 288.26 201.246 289.071 200.245 289.071C199.245 289.071 198.434 288.26 198.434 287.26C198.434 286.259 199.245 285.448 200.245 285.448C201.246 285.448 202.057 286.259 202.057 287.26Z" fill="#F9F9FB"/>
<path d="M173.071 243.782C173.071 244.783 172.26 245.594 171.26 245.594C170.259 245.594 169.448 244.783 169.448 243.782C169.448 242.782 170.259 241.97 171.26 241.97C172.26 241.97 173.071 242.782 173.071 243.782Z" fill="#F9F9FB"/>
<path d="M173.071 214.797C173.071 215.797 172.26 216.608 171.26 216.608C170.259 216.608 169.448 215.797 169.448 214.797C169.448 213.796 170.259 212.985 171.26 212.985C172.26 212.985 173.071 213.796 173.071 214.797Z" fill="#F9F9FB"/>
<path d="M173.071 272.767C173.071 273.768 172.26 274.579 171.26 274.579C170.259 274.579 169.448 273.768 169.448 272.767C169.448 271.767 170.259 270.956 171.26 270.956C172.26 270.956 173.071 271.767 173.071 272.767Z" fill="#F9F9FB"/>
<path d="M173.071 200.304C173.071 201.305 172.26 202.116 171.26 202.116C170.259 202.116 169.448 201.305 169.448 200.304C169.448 199.304 170.259 198.493 171.26 198.493C172.26 198.493 173.071 199.304 173.071 200.304Z" fill="#F9F9FB"/>
<path d="M173.071 258.275C173.071 259.275 172.26 260.086 171.26 260.086C170.259 260.086 169.448 259.275 169.448 258.275C169.448 257.274 170.259 256.463 171.26 256.463C172.26 256.463 173.071 257.274 173.071 258.275Z" fill="#F9F9FB"/>
<path d="M173.071 229.289C173.071 230.29 172.26 231.101 171.26 231.101C170.259 231.101 169.448 230.29 169.448 229.289C169.448 228.289 170.259 227.478 171.26 227.478C172.26 227.478 173.071 228.289 173.071 229.289Z" fill="#F9F9FB"/>
<path d="M173.071 287.26C173.071 288.26 172.26 289.071 171.26 289.071C170.259 289.071 169.448 288.26 169.448 287.26C169.448 286.259 170.259 285.448 171.26 285.448C172.26 285.448 173.071 286.259 173.071 287.26Z" fill="#F9F9FB"/>
<path d="M115.101 243.782C115.101 244.783 114.29 245.594 113.29 245.594C112.289 245.594 111.478 244.783 111.478 243.782C111.478 242.782 112.289 241.97 113.29 241.97C114.29 241.97 115.101 242.782 115.101 243.782Z" fill="#F9F9FB"/>
<path d="M115.101 214.797C115.101 215.797 114.29 216.608 113.29 216.608C112.289 216.608 111.478 215.797 111.478 214.797C111.478 213.796 112.289 212.985 113.29 212.985C114.29 212.985 115.101 213.796 115.101 214.797Z" fill="#F9F9FB"/>
<path d="M115.101 272.767C115.101 273.768 114.29 274.579 113.29 274.579C112.289 274.579 111.478 273.768 111.478 272.767C111.478 271.767 112.289 270.956 113.29 270.956C114.29 270.956 115.101 271.767 115.101 272.767Z" fill="#F9F9FB"/>
<path d="M115.101 200.304C115.101 201.305 114.29 202.116 113.29 202.116C112.289 202.116 111.478 201.305 111.478 200.304C111.478 199.304 112.289 198.493 113.29 198.493C114.29 198.493 115.101 199.304 115.101 200.304Z" fill="#F9F9FB"/>
<path d="M115.101 258.275C115.101 259.275 114.29 260.086 113.29 260.086C112.289 260.086 111.478 259.275 111.478 258.275C111.478 257.274 112.289 256.463 113.29 256.463C114.29 256.463 115.101 257.274 115.101 258.275Z" fill="#F9F9FB"/>
<path d="M115.101 229.289C115.101 230.29 114.29 231.101 113.29 231.101C112.289 231.101 111.478 230.29 111.478 229.289C111.478 228.289 112.289 227.478 113.29 227.478C114.29 227.478 115.101 228.289 115.101 229.289Z" fill="#F9F9FB"/>
<path d="M115.101 287.26C115.101 288.26 114.29 289.071 113.29 289.071C112.289 289.071 111.478 288.26 111.478 287.26C111.478 286.259 112.289 285.448 113.29 285.448C114.29 285.448 115.101 286.259 115.101 287.26Z" fill="#F9F9FB"/>
<path d="M129.593 300.303C129.593 301.304 128.782 302.115 127.782 302.115C126.781 302.115 125.97 301.304 125.97 300.303C125.97 299.303 126.781 298.492 127.782 298.492C128.782 298.492 129.593 299.303 129.593 300.303Z" fill="#F9F9FB"/>
<path d="M129.593 329.288C129.593 330.289 128.782 331.1 127.782 331.1C126.781 331.1 125.97 330.289 125.97 329.288C125.97 328.288 126.781 327.477 127.782 327.477C128.782 327.477 129.593 328.288 129.593 329.288Z" fill="#F9F9FB"/>
<path d="M129.593 314.796C129.593 315.796 128.782 316.607 127.782 316.607C126.781 316.607 125.97 315.796 125.97 314.796C125.97 313.795 126.781 312.984 127.782 312.984C128.782 312.984 129.593 313.795 129.593 314.796Z" fill="#F9F9FB"/>
<path d="M187.564 300.303C187.564 301.304 186.753 302.115 185.753 302.115C184.752 302.115 183.941 301.304 183.941 300.303C183.941 299.303 184.752 298.492 185.753 298.492C186.753 298.492 187.564 299.303 187.564 300.303Z" fill="#F9F9FB"/>
<path d="M187.564 329.288C187.564 330.289 186.753 331.1 185.753 331.1C184.752 331.1 183.941 330.289 183.941 329.288C183.941 328.288 184.752 327.477 185.753 327.477C186.753 327.477 187.564 328.288 187.564 329.288Z" fill="#F9F9FB"/>
<path d="M187.564 314.796C187.564 315.796 186.753 316.607 185.753 316.607C184.752 316.607 183.941 315.796 183.941 314.796C183.941 313.795 184.752 312.984 185.753 312.984C186.753 312.984 187.564 313.795 187.564 314.796Z" fill="#F9F9FB"/>
<path d="M158.579 300.303C158.579 301.304 157.768 302.115 156.767 302.115C155.767 302.115 154.956 301.304 154.956 300.303C154.956 299.303 155.767 298.492 156.767 298.492C157.768 298.492 158.579 299.303 158.579 300.303Z" fill="#F9F9FB"/>
<path d="M158.579 329.288C158.579 330.289 157.768 331.1 156.767 331.1C155.767 331.1 154.956 330.289 154.956 329.288C154.956 328.288 155.767 327.477 156.767 327.477C157.768 327.477 158.579 328.288 158.579 329.288Z" fill="#F9F9FB"/>
<path d="M158.579 314.796C158.579 315.796 157.768 316.607 156.767 316.607C155.767 316.607 154.956 315.796 154.956 314.796C154.956 313.795 155.767 312.984 156.767 312.984C157.768 312.984 158.579 313.795 158.579 314.796Z" fill="#F9F9FB"/>
<path d="M100.608 300.303C100.608 301.304 99.7974 302.115 98.7969 302.115C97.7964 302.115 96.9853 301.304 96.9853 300.303C96.9853 299.303 97.7964 298.492 98.7969 298.492C99.7974 298.492 100.608 299.303 100.608 300.303Z" fill="#F9F9FB"/>
<path d="M100.608 329.288C100.608 330.289 99.7974 331.1 98.7969 331.1C97.7964 331.1 96.9853 330.289 96.9853 329.288C96.9853 328.288 97.7964 327.477 98.7969 327.477C99.7974 327.477 100.608 328.288 100.608 329.288Z" fill="#F9F9FB"/>
<path d="M100.608 314.796C100.608 315.796 99.7974 316.607 98.7969 316.607C97.7964 316.607 96.9853 315.796 96.9853 314.796C96.9853 313.795 97.7964 312.984 98.7969 312.984C99.7974 312.984 100.608 313.795 100.608 314.796Z" fill="#F9F9FB"/>
<path d="M216.549 300.303C216.549 301.304 215.738 302.115 214.737 302.115C213.737 302.115 212.926 301.304 212.926 300.303C212.926 299.303 213.737 298.492 214.737 298.492C215.738 298.492 216.549 299.303 216.549 300.303Z" fill="#F9F9FB"/>
<path d="M216.549 329.288C216.549 330.289 215.738 331.1 214.737 331.1C213.737 331.1 212.926 330.289 212.926 329.288C212.926 328.288 213.737 327.477 214.737 327.477C215.738 327.477 216.549 328.288 216.549 329.288Z" fill="#F9F9FB"/>
<path d="M216.549 314.796C216.549 315.796 215.738 316.607 214.737 316.607C213.737 316.607 212.926 315.796 212.926 314.796C212.926 313.795 213.737 312.984 214.737 312.984C215.738 312.984 216.549 313.795 216.549 314.796Z" fill="#F9F9FB"/>
<path d="M144.086 300.303C144.086 301.304 143.275 302.115 142.275 302.115C141.274 302.115 140.463 301.304 140.463 300.303C140.463 299.303 141.274 298.492 142.275 298.492C143.275 298.492 144.086 299.303 144.086 300.303Z" fill="#F9F9FB"/>
<path d="M144.086 329.288C144.086 330.289 143.275 331.1 142.275 331.1C141.274 331.1 140.463 330.289 140.463 329.288C140.463 328.288 141.274 327.477 142.275 327.477C143.275 327.477 144.086 328.288 144.086 329.288Z" fill="#F9F9FB"/>
<path d="M144.086 314.796C144.086 315.796 143.275 316.607 142.275 316.607C141.274 316.607 140.463 315.796 140.463 314.796C140.463 313.795 141.274 312.984 142.275 312.984C143.275 312.984 144.086 313.795 144.086 314.796Z" fill="#F9F9FB"/>
<path d="M86.1158 300.303C86.1158 301.304 85.3048 302.115 84.3043 302.115C83.3037 302.115 82.4927 301.304 82.4927 300.303C82.4927 299.303 83.3037 298.492 84.3043 298.492C85.3048 298.492 86.1158 299.303 86.1158 300.303Z" fill="#F9F9FB"/>
<path d="M86.1158 329.288C86.1158 330.289 85.3048 331.1 84.3043 331.1C83.3037 331.1 82.4927 330.289 82.4927 329.288C82.4927 328.288 83.3037 327.477 84.3043 327.477C85.3048 327.477 86.1158 328.288 86.1158 329.288Z" fill="#F9F9FB"/>
<path d="M86.1158 314.796C86.1158 315.796 85.3048 316.607 84.3043 316.607C83.3037 316.607 82.4927 315.796 82.4927 314.796C82.4927 313.795 83.3037 312.984 84.3043 312.984C85.3048 312.984 86.1158 313.795 86.1158 314.796Z" fill="#F9F9FB"/>
<path d="M202.057 300.303C202.057 301.304 201.246 302.115 200.245 302.115C199.245 302.115 198.434 301.304 198.434 300.303C198.434 299.303 199.245 298.492 200.245 298.492C201.246 298.492 202.057 299.303 202.057 300.303Z" fill="#F9F9FB"/>
<path d="M202.057 329.288C202.057 330.289 201.246 331.1 200.245 331.1C199.245 331.1 198.434 330.289 198.434 329.288C198.434 328.288 199.245 327.477 200.245 327.477C201.246 327.477 202.057 328.288 202.057 329.288Z" fill="#F9F9FB"/>
<path d="M202.057 314.796C202.057 315.796 201.246 316.607 200.245 316.607C199.245 316.607 198.434 315.796 198.434 314.796C198.434 313.795 199.245 312.984 200.245 312.984C201.246 312.984 202.057 313.795 202.057 314.796Z" fill="#F9F9FB"/>
<path d="M173.071 300.303C173.071 301.304 172.26 302.115 171.26 302.115C170.259 302.115 169.448 301.304 169.448 300.303C169.448 299.303 170.259 298.492 171.26 298.492C172.26 298.492 173.071 299.303 173.071 300.303Z" fill="#F9F9FB"/>
<path d="M173.071 329.288C173.071 330.289 172.26 331.1 171.26 331.1C170.259 331.1 169.448 330.289 169.448 329.288C169.448 328.288 170.259 327.477 171.26 327.477C172.26 327.477 173.071 328.288 173.071 329.288Z" fill="#F9F9FB"/>
<path d="M173.071 314.796C173.071 315.796 172.26 316.607 171.26 316.607C170.259 316.607 169.448 315.796 169.448 314.796C169.448 313.795 170.259 312.984 171.26 312.984C172.26 312.984 173.071 313.795 173.071 314.796Z" fill="#F9F9FB"/>
<path d="M115.101 300.303C115.101 301.304 114.29 302.115 113.29 302.115C112.289 302.115 111.478 301.304 111.478 300.303C111.478 299.303 112.289 298.492 113.29 298.492C114.29 298.492 115.101 299.303 115.101 300.303Z" fill="#F9F9FB"/>
<path d="M115.101 329.288C115.101 330.289 114.29 331.1 113.29 331.1C112.289 331.1 111.478 330.289 111.478 329.288C111.478 328.288 112.289 327.477 113.29 327.477C114.29 327.477 115.101 328.288 115.101 329.288Z" fill="#F9F9FB"/>
<path d="M115.101 314.796C115.101 315.796 114.29 316.607 113.29 316.607C112.289 316.607 111.478 315.796 111.478 314.796C111.478 313.795 112.289 312.984 113.29 312.984C114.29 312.984 115.101 313.795 115.101 314.796Z" fill="#F9F9FB"/>
</g>
<path d="M624 45C655.677 66.5339 682.999 92.5915 704.983 122" stroke="#73CBE8" stroke-width="12"/>
</svg>
