<svg width="29" height="20" viewBox="0 0 29 20" fill="none" xmlns="http://www.w3.org/2000/svg">
<path d="M9.13797 15.8066H23.0077C23.5557 15.8066 24 15.4032 24 14.9056V0.900991C24 0.403385 23.5557 0 23.0077 0H14.0181V6.98562C14.0181 7.09137 13.8853 7.15189 13.7919 7.08868L12.1613 5.98496C12.1111 5.95098 12.0422 5.95098 11.992 5.98496L10.3614 7.08868C10.268 7.15189 10.1352 7.09137 10.1352 6.98562V0H8.87849C7.28874 0 6 1.17015 6 2.61362V17.3864C6 18.8298 7.28874 20 8.87848 20H22.6312C23.3871 20 24 19.4435 24 18.7571V17.7546C24 17.4114 23.6936 17.1332 23.3156 17.1332C22.9376 17.1332 22.6312 17.4114 22.6312 17.7546V18.7571H9.13798C8.24064 18.7571 7.51321 18.0966 7.51321 17.2819C7.51321 16.4671 8.24064 15.8066 9.13797 15.8066Z" fill="#73CBE8"/>
</svg>
