<svg width="20" height="25" viewBox="0 0 20 25" fill="none" xmlns="http://www.w3.org/2000/svg">
<path d="M3.48663 19.7582H18.8974C19.5064 19.7582 20 19.254 20 18.632V1.12624C20 0.504231 19.5064 0 18.8974 0H8.90902V8.73202C8.90902 8.86422 8.76145 8.93987 8.65768 8.86085L6.84586 7.4812C6.79007 7.43872 6.71359 7.43872 6.65781 7.4812L4.84598 8.86085C4.74222 8.93987 4.59465 8.86422 4.59465 8.73202V0H3.19832C1.43194 0 0 1.46269 0 3.26703V21.733C0 23.5373 1.43194 25 3.19832 25H18.4791C19.3191 25 20 24.3044 20 23.4464V22.1933C20 21.7642 19.6595 21.4165 19.2395 21.4165C18.8195 21.4165 18.4791 21.7642 18.4791 22.1933V23.4464H3.48664C2.4896 23.4464 1.68135 22.6208 1.68135 21.6023V21.6023C1.68135 20.5839 2.4896 19.7582 3.48663 19.7582Z" fill="#73CBE8"/>
</svg>
