<svg width="29" height="20" viewBox="0 0 29 20" fill="none" xmlns="http://www.w3.org/2000/svg">
<path d="M24.9524 0H5.04763C4.46902 0 4 0.490619 4 1.09589V14.7945C4 15.3998 4.46902 15.8904 5.04763 15.8904H12.8611L12.4683 18.3562H10.5476C10.1139 18.3562 9.76192 18.7241 9.76192 19.1781C9.76192 19.6321 10.1139 20 10.5476 20H19.4524C19.8861 20 20.2381 19.6321 20.2381 19.1781C20.2381 18.7241 19.8861 18.3562 19.4524 18.3562H17.5317L17.1389 15.8904H24.9524C25.531 15.8904 26 15.3998 26 14.7945V1.09589C26 0.490619 25.531 0 24.9524 0ZM15 15.0685C14.5661 15.0685 14.2143 14.7005 14.2143 14.2466C14.2143 13.7927 14.5661 13.4247 15 13.4247C15.4339 13.4247 15.7857 13.7927 15.7857 14.2466C15.7857 14.7005 15.4339 15.0685 15 15.0685ZM23.9048 12.0548H6.09525V2.19177H23.9048V12.0548Z" fill="#73CBE8"/>
<path d="M16.9877 6.93467L14.2381 5.1731C13.7903 4.88619 13.215 5.22329 13.215 5.7726V9.29589C13.215 9.8452 13.7903 10.1823 14.2381 9.89539L16.9877 8.13374C17.4158 7.85945 17.4158 7.20894 16.9877 6.93467Z" fill="#73CBE8"/>
</svg>
