<svg width="27" height="24" viewBox="0 0 27 24" fill="none" xmlns="http://www.w3.org/2000/svg">
<path d="M25.7143 0H1.28572C0.575614 0 0 0.588743 0 1.31506V17.7534C0 18.4797 0.575614 19.0685 1.28572 19.0685H10.875L10.3929 22.0274H8.03572C7.50336 22.0274 7.07145 22.4689 7.07145 23.0137C7.07145 23.5585 7.50336 24 8.03572 24H18.9643C19.4966 24 19.9286 23.5585 19.9286 23.0137C19.9286 22.4689 19.4966 22.0274 18.9643 22.0274H16.6071L16.125 19.0685H25.7143C26.4244 19.0685 27 18.4797 27 17.7534V1.31506C27 0.588743 26.4244 0 25.7143 0ZM13.5 18.0822C12.9675 18.0822 12.5357 17.6406 12.5357 17.0959C12.5357 16.5512 12.9675 16.1096 13.5 16.1096C14.0325 16.1096 14.4643 16.5512 14.4643 17.0959C14.4643 17.6406 14.0325 18.0822 13.5 18.0822ZM24.4286 14.4658H2.57145V2.63013H24.4286V14.4658Z" fill="#73CBE8"/>
<path d="M15.9394 8.32161L12.565 6.20773C12.0154 5.86343 11.3093 6.26794 11.3093 6.92712V11.1551C11.3093 11.8142 12.0154 12.2188 12.565 11.8745L15.9394 9.76049C16.4648 9.43134 16.4648 8.65072 15.9394 8.32161Z" fill="#73CBE8"/>
</svg>
