<svg width="29" height="20" viewBox="0 0 29 20" fill="none" xmlns="http://www.w3.org/2000/svg">
<path d="M28.2359 14.9846H28.247L26.9778 14.5443V10.1955C26.8817 10.2064 26.7877 10.2251 26.6889 10.2251H24.6667V13.7414H7.33333V2.63982H16V1.16858C16 0.86358 16.0616 0.575231 16.1565 0.302658H6.17778C5.53962 0.302658 5.02222 0.825837 5.02222 1.47124V14.544L3.75123 14.9846H3.76405C3.31951 15.1474 3 15.574 3 16.0797V17.8314C3 18.4768 3.5174 19 4.15556 19H27.8444C28.4826 19 29 18.4768 29 17.8314V16.0797C29 15.574 28.6805 15.1474 28.2359 14.9846ZM17.4444 17.2115H14.5556C14.0771 17.2115 13.6889 16.8192 13.6889 16.335C13.6889 15.8509 14.0771 15.4586 14.5556 15.4586H17.4444C17.9229 15.4586 18.3111 15.8509 18.3111 16.335C18.3111 16.8192 17.9229 17.2115 17.4444 17.2115ZM11.5569 8.46517C12.7934 9.03128 13.9959 8.132 13.9959 6.94869C13.9959 6.01528 13.2476 5.25862 12.3246 5.25862C11.1544 5.25862 10.2651 6.47483 10.8252 7.72545C10.9708 8.05038 11.2356 8.31804 11.5569 8.46517ZM9.51588 11.4535V11.8511C9.51588 12.0825 9.68789 12.2701 9.90016 12.2701H14.7491C14.9612 12.2701 15.1333 12.0825 15.1333 11.8511V11.4535C15.1333 10.6924 14.5673 10.0755 13.869 10.0755H10.7801C10.0819 10.0755 9.51588 10.6924 9.51588 11.4535Z" fill="#73CBE8"/>
<path d="M26.6889 0H18.6C17.9618 0 17.4444 0.523052 17.4444 1.16858V9.34867C17.4444 9.69474 17.7251 9.93395 18.0246 9.93395C18.1417 9.93395 18.2618 9.89726 18.3689 9.81604L19.4474 8.99803C19.6474 8.84629 19.8907 8.76438 20.1408 8.76438H26.6889C27.3271 8.76438 27.8444 8.24114 27.8444 7.59579V1.16858C27.8444 0.523052 27.3271 0 26.6889 0ZM24.7322 4.5882L22.3684 6.05233C21.9835 6.29083 21.4889 6.01066 21.4889 5.5541V2.62587C21.4889 2.1693 21.9835 1.88913 22.3684 2.12758L24.7322 3.5917C25.1003 3.81963 25.1003 4.36028 24.7322 4.5882Z" fill="#73CBE8"/>
</svg>
