<svg width="30" height="22" viewBox="0 0 30 22" fill="none" xmlns="http://www.w3.org/2000/svg">
<path d="M29.1184 17.3506H29.1311L27.6667 16.8408V11.8053C27.5558 11.818 27.4474 11.8396 27.3333 11.8396H25V15.9111H5V3.05664H15V1.35309C15 0.999935 15.0711 0.666058 15.1805 0.350446H3.66667C2.93033 0.350446 2.33333 0.956233 2.33333 1.70355V16.8404L0.8668 17.3506H0.881594C0.368663 17.539 0 18.033 0 18.6186V20.6469C0 21.3942 0.596995 22 1.33334 22H28.6667C29.403 22 30 21.3942 30 20.6469V18.6186C30 18.033 29.6313 17.539 29.1184 17.3506ZM16.6667 19.9291H13.3333C12.7813 19.9291 12.3333 19.4749 12.3333 18.9143C12.3333 18.3537 12.7813 17.8994 13.3333 17.8994H16.6667C17.2187 17.8994 17.6667 18.3537 17.6667 18.9143C17.6667 19.4749 17.2187 19.9291 16.6667 19.9291ZM9.87339 9.80177C11.3001 10.4573 12.6876 9.416 12.6876 8.04585C12.6876 6.96506 11.8241 6.08893 10.7591 6.08893C9.40886 6.08893 8.3828 7.49717 9.02913 8.94526C9.19713 9.32149 9.5026 9.63141 9.87339 9.80177ZM7.51832 13.262V13.7224C7.51832 13.9903 7.7168 14.2075 7.96172 14.2075H13.5567C13.8014 14.2075 14 13.9903 14 13.7224V13.262C14 12.3807 13.3469 11.6664 12.5412 11.6664H8.97706C8.1714 11.6664 7.51832 12.3807 7.51832 13.262Z" fill="#73CBE8"/>
<path d="M27.3333 0H18C17.2637 0 16.6667 0.605639 16.6667 1.35309V10.8248C16.6667 11.2255 16.9905 11.5025 17.3361 11.5025C17.4712 11.5025 17.6097 11.46 17.7334 11.3659L18.9778 10.4188C19.2086 10.2431 19.4893 10.1482 19.7778 10.1482H27.3333C28.0697 10.1482 28.6667 9.54237 28.6667 8.79512V1.35309C28.6667 0.605639 28.0697 0 27.3333 0ZM25.0757 5.31266L22.3481 7.00796C21.904 7.28412 21.3333 6.95972 21.3333 6.43106V3.04048C21.3333 2.51182 21.904 2.18742 22.3481 2.46351L25.0757 4.15881C25.5003 4.42273 25.5003 5.04875 25.0757 5.31266Z" fill="#73CBE8"/>
</svg>
