<svg width="43" height="49" viewBox="0 0 43 49" fill="none" xmlns="http://www.w3.org/2000/svg">
<path opacity="0.12" d="M21.5 6C24.3234 6 27.1192 6.55611 29.7277 7.63659C32.3362 8.71707 34.7063 10.3007 36.7028 12.2972C38.6993 14.2937 40.2829 16.6638 41.3634 19.2723C42.4439 21.8808 43 24.6766 43 27.5C43 30.3234 42.4439 33.1192 41.3634 35.7277C40.2829 38.3362 38.6993 40.7063 36.7028 42.7028C34.7063 44.6993 32.3362 46.2829 29.7277 47.3634C27.1192 48.4439 24.3234 49 21.5 49L21.5 27.5L21.5 6Z" fill="#73CBE8"/>
<path d="M33.9049 11.6073C33.1753 5.56826 28.4773 0.814042 22.5228 0.0892041C22.0101 0.0298457 21.4946 0.00011095 20.9785 0C15.7162 0.00821032 10.978 3.23464 8.97687 8.17226C6.97575 13.1099 8.10667 18.7845 11.8414 22.5456C13.8274 24.4752 14.9648 27.1342 14.9973 29.9238V31.4475H26.9959V29.916C27.005 27.1792 28.1024 24.5619 30.0395 22.6572C32.9654 19.7932 34.3966 15.7021 33.9047 11.6077V11.6073H33.9049Z" fill="#73CBE8"/>
<path d="M20.9968 41C22.2676 40.9986 23.4 40.1862 23.8251 38.9712H18.1686C18.5936 40.1862 19.726 40.9986 20.9968 41Z" fill="#73CBE8"/>
<path d="M15.9973 36.2237C15.9981 36.7836 16.4453 37.2373 16.9972 37.2381H24.9963C25.5483 37.2373 25.9955 36.7836 25.9962 36.2237V33.1804H15.9973V36.2237Z" fill="#73CBE8"/>
</svg>
