<svg width="43" height="48" viewBox="0 0 43 48" fill="none" xmlns="http://www.w3.org/2000/svg">
<path opacity="0.12" d="M21.5 5C24.3234 5 27.1192 5.55611 29.7277 6.63659C32.3362 7.71707 34.7063 9.30075 36.7028 11.2972C38.6993 13.2937 40.2829 15.6638 41.3634 18.2723C42.4439 20.8808 43 23.6766 43 26.5C43 29.3234 42.4439 32.1192 41.3634 34.7277C40.2829 37.3362 38.6993 39.7063 36.7028 41.7028C34.7063 43.6993 32.3362 45.2829 29.7277 46.3634C27.1192 47.4439 24.3234 48 21.5 48L21.5 26.5V5Z" fill="#73CBE8"/>
<path d="M30.1389 15H27.5555V11.6666C27.5555 5.23359 22.1476 0 15.5 0C8.85244 0 3.44447 5.23359 3.44447 11.6666V15H0.861138C0.385159 15 0 15.3727 0 15.8334V36.6667C0 38.5051 1.54475 40 3.44447 40H27.5556C29.4552 40 31 38.5051 31 36.6666V15.8334C31 15.3727 30.6148 15 30.1389 15ZM18.0783 32.408C18.1052 32.6432 18.0271 32.8792 17.8639 33.0559C17.7008 33.2324 17.467 33.3334 17.2223 33.3334H13.7778C13.5331 33.3334 13.2993 33.2324 13.1362 33.0559C12.973 32.8793 12.8948 32.6433 12.9218 32.408L13.465 27.6807C12.5829 27.0598 12.0556 26.0775 12.0556 25C12.0556 23.1616 13.6004 21.6666 15.5001 21.6666C17.3998 21.6666 18.9446 23.1616 18.9446 25C18.9446 26.0775 18.4173 27.0598 17.5352 27.6807L18.0783 32.408ZM22.3889 15H8.61114V11.6666C8.61114 7.9907 11.7015 5 15.5 5C19.2985 5 22.3889 7.9907 22.3889 11.6666V15V15Z" fill="#73CBE8"/>
</svg>
