<svg width="43" height="49" viewBox="0 0 43 49" fill="none" xmlns="http://www.w3.org/2000/svg">
<path opacity="0.12" d="M21.5 6C24.3234 6 27.1192 6.55611 29.7277 7.63659C32.3362 8.71707 34.7063 10.3007 36.7028 12.2972C38.6993 14.2937 40.2829 16.6638 41.3634 19.2723C42.4439 21.8808 43 24.6766 43 27.5C43 30.3234 42.4439 33.1192 41.3634 35.7277C40.2829 38.3362 38.6993 40.7063 36.7028 42.7028C34.7063 44.6993 32.3362 46.2829 29.7277 47.3634C27.1192 48.4439 24.3234 49 21.5 49L21.5 27.5V6Z" fill="#73CBE8"/>
<path d="M11.7522 6.82028C11.7522 5.01143 12.4634 3.27666 13.7293 1.99761C14.9951 0.718563 16.712 0 18.5022 0C20.2925 0 22.0094 0.718563 23.2752 1.99761C24.5411 3.27666 25.2522 5.01143 25.2522 6.82028C25.2522 8.62913 24.5411 10.3639 23.2752 11.6429C22.0094 12.922 20.2925 13.6406 18.5022 13.6406C16.712 13.6406 14.9951 12.922 13.7293 11.6429C12.4634 10.3639 11.7522 8.62913 11.7522 6.82028ZM27.5045 15.914H26.2602L19.2605 30.2729L21.8772 17.0507L18.5022 13.6406L15.1272 17.0507L17.744 30.2729L10.7442 15.914H9.49775C5 15.914 5 18.9695 5 22.7343V40H32V22.7343C32 18.9695 32 15.914 27.5022 15.914H27.5045Z" fill="#73CBE8"/>
</svg>
