<svg width="174" height="29" viewBox="0 0 174 29" fill="none" xmlns="http://www.w3.org/2000/svg">
<path d="M46.6745 28.5535C43.1985 28.5535 40.5446 27.6581 38.7127 25.8674C36.9042 24.0531 36 21.4141 36 17.9504V5.86284C36 5.03815 36.2466 4.37841 36.7398 3.88359C37.233 3.38878 37.8906 3.14138 38.7127 3.14138C39.5347 3.14138 40.1805 3.38878 40.6503 3.88359C41.1435 4.37841 41.3901 5.03815 41.3901 5.86284V18.1978C41.3901 20.177 41.8363 21.685 42.7288 22.7218C43.6448 23.7585 44.96 24.2769 46.6745 24.2769C48.389 24.2769 49.7042 23.7585 50.6201 22.7218C51.5361 21.6615 51.9941 20.1535 51.9941 18.1978V5.86284C51.9941 5.03815 52.229 4.37841 52.6987 3.88359C53.1919 3.38878 53.8495 3.14138 54.6715 3.14138C55.4935 3.14138 56.1511 3.38878 56.6444 3.88359C57.1376 4.37841 57.3842 5.03815 57.3842 5.86284V17.9504C57.3842 21.3905 56.4682 24.0177 54.6363 25.832C52.8044 27.6464 50.1504 28.5535 46.6745 28.5535Z" fill="white"/>
<path d="M77.1921 23.8881C78.0846 23.8881 78.7422 24.0649 79.1649 24.4183C79.5877 24.7717 79.7991 25.3137 79.7991 26.0441C79.7991 26.7981 79.5877 27.3518 79.1649 27.7053C78.7422 28.0587 78.0846 28.2354 77.1921 28.2354H62.6424C61.9143 28.2354 61.3272 28.0233 60.8809 27.5992C60.4582 27.1515 60.2468 26.5978 60.2468 25.9381C60.2468 25.2548 60.4817 24.595 60.9514 23.9588L72.6828 7.66537H62.889C61.9965 7.66537 61.3389 7.48865 60.9162 7.13522C60.4934 6.78178 60.282 6.23984 60.282 5.5094C60.282 4.75541 60.4934 4.20169 60.9162 3.84825C61.3389 3.49481 61.9965 3.31809 62.889 3.31809H76.9103C77.6383 3.31809 78.2137 3.54194 78.6365 3.98962C79.0827 4.41375 79.3059 4.95569 79.3059 5.61543C79.3059 6.32231 79.0827 6.98206 78.6365 7.59468L66.8699 23.8881H77.1921Z" fill="white"/>
<path d="M85.0254 28.4475C84.1799 28.4475 83.5105 28.2001 83.0173 27.7053C82.5241 27.2104 82.2775 26.5389 82.2775 25.6907V5.89819C82.2775 5.0735 82.5006 4.43731 82.9468 3.98962C83.3931 3.54194 84.0272 3.31809 84.8492 3.31809H93.6918C96.3927 3.31809 98.4947 4.00141 99.9978 5.36803C101.501 6.73465 102.252 8.64321 102.252 11.0937C102.252 13.5442 101.501 15.4528 99.9978 16.8194C98.4947 18.186 96.3927 18.8693 93.6918 18.8693H87.7733V25.6907C87.7733 26.5389 87.5267 27.2104 87.0334 27.7053C86.5402 28.2001 85.8709 28.4475 85.0254 28.4475ZM92.9872 14.6988C95.7351 14.6988 97.109 13.5089 97.109 11.1291C97.109 8.72568 95.7351 7.524 92.9872 7.524H87.7733V14.6988H92.9872Z" fill="white"/>
<path d="M125.467 24.7364C125.82 25.2548 125.996 25.7614 125.996 26.2562C125.996 26.9159 125.726 27.4579 125.186 27.882C124.669 28.3061 124.058 28.5182 123.354 28.5182C122.907 28.5182 122.473 28.4121 122.05 28.2001C121.627 27.988 121.275 27.6581 120.993 27.2104L116.343 20.2831C115.944 19.6705 115.521 19.2345 115.075 18.9754C114.629 18.6926 114.065 18.5512 113.384 18.5512H110.53V25.6907C110.53 26.5389 110.284 27.2104 109.79 27.7053C109.321 28.2001 108.675 28.4475 107.853 28.4475C107.007 28.4475 106.338 28.2001 105.845 27.7053C105.352 27.2104 105.105 26.5389 105.105 25.6907V5.89819C105.105 5.0735 105.328 4.43731 105.774 3.98962C106.221 3.54194 106.855 3.31809 107.677 3.31809H116.519C119.432 3.31809 121.627 3.96606 123.107 5.262C124.61 6.53437 125.362 8.38403 125.362 10.811C125.362 12.7195 124.833 14.31 123.776 15.5824C122.72 16.8547 121.228 17.6912 119.302 18.0918C120.007 18.2331 120.629 18.5159 121.17 18.94C121.733 19.3406 122.273 19.9296 122.79 20.7072L125.467 24.7364ZM115.709 14.3807C117.283 14.3807 118.422 14.1097 119.126 13.5678C119.831 13.0023 120.183 12.1305 120.183 10.9523C120.183 9.75065 119.831 8.87884 119.126 8.3369C118.422 7.79496 117.283 7.524 115.709 7.524H110.46V14.3807H115.709Z" fill="white"/>
<path d="M140.344 28.5535C137.878 28.5535 135.729 28.0351 133.897 26.9984C132.089 25.9381 130.692 24.4536 129.705 22.5451C128.719 20.613 128.226 18.351 128.226 15.7591C128.226 13.1672 128.719 10.917 129.705 9.00843C130.692 7.07631 132.089 5.59187 133.897 4.55512C135.729 3.51837 137.878 3 140.344 3C142.81 3 144.948 3.51837 146.756 4.55512C148.588 5.59187 149.997 7.07631 150.984 9.00843C151.97 10.917 152.463 13.1672 152.463 15.7591C152.463 18.351 151.97 20.613 150.984 22.5451C149.997 24.4536 148.588 25.9381 146.756 26.9984C144.948 28.0351 142.81 28.5535 140.344 28.5535ZM140.344 24.2769C142.411 24.2769 144.032 23.5465 145.206 22.0856C146.404 20.6247 147.003 18.5159 147.003 15.7591C147.003 13.0023 146.416 10.9052 145.241 9.4679C144.067 8.00703 142.435 7.27659 140.344 7.27659C138.254 7.27659 136.622 8.00703 135.448 9.4679C134.297 10.9052 133.721 13.0023 133.721 15.7591C133.721 18.5159 134.308 20.6247 135.483 22.0856C136.657 23.5465 138.278 24.2769 140.344 24.2769Z" fill="white"/>
<path d="M158.703 28.4475C157.881 28.4475 157.211 28.2001 156.695 27.7053C156.201 27.1869 155.955 26.5154 155.955 25.6907V5.89819C155.955 5.0735 156.178 4.43731 156.624 3.98962C157.07 3.54194 157.705 3.31809 158.527 3.31809H170.645C171.538 3.31809 172.196 3.49481 172.618 3.84825C173.041 4.20169 173.252 4.75541 173.252 5.5094C173.252 6.23984 173.041 6.78178 172.618 7.13522C172.196 7.48865 171.538 7.66537 170.645 7.66537H161.38V13.3911H169.941C170.833 13.3911 171.491 13.5678 171.914 13.9212C172.336 14.2746 172.548 14.8284 172.548 15.5824C172.548 16.3128 172.336 16.8547 171.914 17.2082C171.491 17.5616 170.833 17.7383 169.941 17.7383H161.38V25.6907C161.38 26.5389 161.134 27.2104 160.64 27.7053C160.171 28.2001 159.525 28.4475 158.703 28.4475Z" fill="white"/>
<path d="M28.906 13.5938L15.3563 13.5937L15.3563 1.64509e-05L27.906 1.64509e-05C28.4583 1.64509e-05 28.906 0.447732 28.906 1.00002L28.906 13.5938Z" fill="#FF823B"/>
<path d="M28.9059 15.4062C28.9059 17.1319 28.5671 19.2938 27.9089 20.8881C27.2507 22.4824 26.2859 23.931 25.0696 25.1512C23.8533 26.3714 22.4094 27.3393 20.8203 27.9997C19.2311 28.6601 17.0763 29 15.3562 29V15.4062H28.9059Z" fill="#73CBE8"/>
<path d="M8.47876e-05 13.5937C8.47876e-05 11.8086 0.350558 10.0409 1.0315 8.39165C1.71243 6.74239 2.7105 5.24382 3.96871 3.98153C5.22691 2.71923 6.72062 1.71793 8.36455 1.03478C10.0085 0.351629 11.7704 1.72073e-05 13.5498 1.72853e-05L13.5498 13.5938L8.47876e-05 13.5937Z" fill="#73CBE8"/>
<path d="M0 15.4062H13.5497V29H1C0.447716 29 0 28.5523 0 28V15.4062Z" fill="#FF823B"/>
</svg>
